<?xml version="1.0" encoding="UTF-8"?>
<!DOCTYPE svg PUBLIC "-//W3C//DTD SVG 1.1//EN" "http://www.w3.org/Graphics/SVG/1.1/DTD/svg11.dtd">
<svg xmlns="http://www.w3.org/2000/svg" version="1.1" width="231px" height="113px" style="shape-rendering:geometricPrecision; text-rendering:geometricPrecision; image-rendering:optimizeQuality; fill-rule:evenodd; clip-rule:evenodd" xmlns:xlink="http://www.w3.org/1999/xlink">
<g><path style="opacity:1" fill="#fafafb" d="M -0.5,-0.5 C 76.5,-0.5 153.5,-0.5 230.5,-0.5C 230.5,37.1667 230.5,74.8333 230.5,112.5C 153.5,112.5 76.5,112.5 -0.5,112.5C -0.5,74.8333 -0.5,37.1667 -0.5,-0.5 Z"/></g>
<g><path style="opacity:1" fill="#d5fafe" d="M 54.5,14.5 C 39.184,13.6408 23.8507,13.3075 8.5,13.5C 9.14507,12.1882 10.1451,11.1882 11.5,10.5C 13.8034,11.6808 16.1368,11.6808 18.5,10.5C 27.8058,11.2812 37.1391,11.7812 46.5,12C 49.6752,11.9467 52.3419,12.78 54.5,14.5 Z"/></g>
<g><path style="opacity:1" fill="#080908" d="M 190.5,29.5 C 189.129,28.2132 187.295,27.5465 185,27.5C 182.967,27.5056 181.134,27.8389 179.5,28.5C 171.92,29.5777 169.754,33.5777 173,40.5C 183.31,44.623 193.477,49.123 203.5,54C 210.05,59.6748 212.55,66.8415 211,75.5C 210.366,83.1174 206.866,88.9507 200.5,93C 182.216,101.746 165.216,99.9127 149.5,87.5C 152.404,82.2594 156.071,77.5927 160.5,73.5C 169.571,82.0621 179.738,83.7287 191,78.5C 193.976,72.7098 192.476,68.5431 186.5,66C 176.679,63.5108 167.513,59.6775 159,54.5C 152.919,47.2552 150.919,38.9218 153,29.5C 159.007,16.6948 169.174,10.6948 183.5,11.5C 193.058,12.0524 201.724,15.0524 209.5,20.5C 206.179,25.1518 202.513,29.4851 198.5,33.5C 195.807,32.1534 193.14,30.8201 190.5,29.5 Z"/></g>
<g><path style="opacity:1" fill="#070708" d="M 147.5,13.5 C 147.5,18.8333 147.5,24.1667 147.5,29.5C 139.981,29.175 132.648,29.5084 125.5,30.5C 125.5,52.5 125.5,74.5 125.5,96.5C 119.167,96.5 112.833,96.5 106.5,96.5C 106.5,74.1667 106.5,51.8333 106.5,29.5C 98.8333,29.5 91.1667,29.5 83.5,29.5C 83.5,24.1667 83.5,18.8333 83.5,13.5C 104.833,13.5 126.167,13.5 147.5,13.5 Z"/></g>
<g><path style="opacity:1" fill="#484749" d="M 179.5,28.5 C 181.134,27.8389 182.967,27.5056 185,27.5C 187.295,27.5465 189.129,28.2132 190.5,29.5C 186.901,28.6561 183.234,28.3227 179.5,28.5 Z"/></g>
<g><path style="opacity:1" fill="#868684" d="M 147.5,13.5 C 148.489,18.9753 148.822,24.642 148.5,30.5C 140.833,30.5 133.167,30.5 125.5,30.5C 132.648,29.5084 139.981,29.175 147.5,29.5C 147.5,24.1667 147.5,18.8333 147.5,13.5 Z"/></g>
<g><path style="opacity:1" fill="#0697d6" d="M 79.5,38.5 C 79.1485,41.0728 79.6485,43.4062 81,45.5C 81.6667,50.5 81.6667,55.5 81,60.5C 80.0853,61.3279 79.4186,62.3279 79,63.5C 79.3347,71.1568 76.668,77.4902 71,82.5C 70.5172,83.448 70.3505,84.448 70.5,85.5C 70.5,86.1667 70.1667,86.5 69.5,86.5C 67.323,86.5861 65.323,87.2528 63.5,88.5C 60.8908,87.7695 58.2241,87.2695 55.5,87C 52.8118,84.0923 49.8118,83.759 46.5,86C 26.7475,86.7433 26.7475,85.7433 46.5,83C 49.5529,79.7633 52.5529,79.7633 55.5,83C 57.8087,83.7562 59.8087,83.2562 61.5,81.5C 59.7227,80.099 58.056,78.599 56.5,77C 59.5433,76.6682 61.5433,75.1682 62.5,72.5C 62.1636,68.8331 62.997,65.4998 65,62.5C 66.6027,52.4974 64.436,43.4974 58.5,35.5C 57.2638,34.7542 55.9305,34.4208 54.5,34.5C 52.7906,32.187 50.4572,30.687 47.5,30C 41.6518,29.8272 35.9851,29.3272 30.5,28.5C 31.7914,27.5272 31.7914,26.5272 30.5,25.5C 31.3333,25.1667 32.1667,24.8333 33,24.5C 34.8001,25.3784 36.6334,26.045 38.5,26.5C 38.5,24.5 38.5,22.5 38.5,20.5C 30.751,20.3057 23.0843,20.3057 15.5,20.5C 14.1667,42.1667 14.1667,63.8333 15.5,85.5C 16.3331,64.8414 16.8331,44.1747 17,23.5C 18.0113,22.6634 19.1779,22.33 20.5,22.5C 20.6666,43.5026 20.5,64.5026 20,85.5C 18.9887,86.3366 17.8221,86.67 16.5,86.5C 16.5,88.1667 16.5,89.8333 16.5,91.5C 23.4819,92.3988 30.4819,92.5654 37.5,92C 38.3366,90.9887 38.67,89.8221 38.5,88.5C 42.4883,88.8305 46.3216,88.8305 50,88.5C 51.6268,88.6251 53.1268,89.1251 54.5,90C 51.6392,91.2457 48.6392,92.2457 45.5,93C 34.5438,94.3189 23.5438,94.8189 12.5,94.5C 12.9746,91.9179 12.3079,89.9179 10.5,88.5C 10.7943,64.1408 10.461,39.8074 9.5,15.5C 23.16,14.2299 36.8266,14.3965 50.5,16C 56.609,18.3134 62.609,20.98 68.5,24C 72.8266,28.472 76.4932,33.3053 79.5,38.5 Z"/></g>
<g><path style="opacity:1" fill="#fafcfc" d="M 60.5,47.5 C 62.0173,49.4621 62.6839,51.7954 62.5,54.5C 61.2305,59.056 60.5638,63.7227 60.5,68.5C 58.8606,70.8061 56.8606,72.8061 54.5,74.5C 51.606,74.5564 48.9393,75.3897 46.5,77C 40.8431,77.4994 35.1764,77.6661 29.5,77.5C 29.3334,63.496 29.5001,49.496 30,35.5C 30.3742,34.5838 30.8742,33.7504 31.5,33C 36.5,32.3333 41.5,32.3333 46.5,33C 49.016,35.5564 52.016,37.3898 55.5,38.5C 56.8247,41.7908 58.4913,44.7908 60.5,47.5 Z"/></g>
<g><path style="opacity:1" fill="#defbfe" d="M 27.5,30.5 C 36.8936,29.5769 45.8936,30.9103 54.5,34.5C 56.1667,36.5 57.8333,38.5 59.5,40.5C 59.6741,42.861 60.0074,45.1944 60.5,47.5C 58.4913,44.7908 56.8247,41.7908 55.5,38.5C 52.016,37.3898 49.016,35.5564 46.5,33C 41.5,32.3333 36.5,32.3333 31.5,33C 30.8742,33.7504 30.3742,34.5838 30,35.5C 29.5001,49.496 29.3334,63.496 29.5,77.5C 35.1764,77.6661 40.8431,77.4994 46.5,77C 48.9393,75.3897 51.606,74.5564 54.5,74.5C 54.5,74.8333 54.5,75.1667 54.5,75.5C 45.9217,79.0233 36.9217,80.3566 27.5,79.5C 27.5,63.1667 27.5,46.8333 27.5,30.5 Z"/></g>
<g><path style="opacity:1" fill="#3091b6" d="M 8.5,13.5 C 23.8507,13.3075 39.184,13.6408 54.5,14.5C 59.6592,16.7824 64.6592,19.4491 69.5,22.5C 72.1731,25.5057 74.8398,28.5057 77.5,31.5C 78.9459,33.6179 79.6126,35.9512 79.5,38.5C 76.4932,33.3053 72.8266,28.472 68.5,24C 62.609,20.98 56.609,18.3134 50.5,16C 36.8266,14.3965 23.16,14.2299 9.5,15.5C 10.461,39.8074 10.7943,64.1408 10.5,88.5C 10.2436,90.7925 10.5769,92.9592 11.5,95C 24.5185,95.7114 37.5185,95.5448 50.5,94.5C 49.3915,95.29 48.0581,95.79 46.5,96C 33.8377,96.4999 21.1711,96.6666 8.5,96.5C 8.5,68.8333 8.5,41.1667 8.5,13.5 Z"/></g>
<g><path style="opacity:1" fill="#2992b8" d="M 54.5,34.5 C 55.9305,34.4208 57.2638,34.7542 58.5,35.5C 64.436,43.4974 66.6027,52.4974 65,62.5C 62.997,65.4998 62.1636,68.8331 62.5,72.5C 59.9933,73.8916 57.3267,74.8916 54.5,75.5C 54.5,75.1667 54.5,74.8333 54.5,74.5C 56.8606,72.8061 58.8606,70.8061 60.5,68.5C 63.36,62.2335 64.1933,55.5668 63,48.5C 62.2952,45.5243 61.1286,42.8577 59.5,40.5C 57.8333,38.5 56.1667,36.5 54.5,34.5 Z"/></g>
<g><path style="opacity:1" fill="#3392b8" d="M 79.5,38.5 C 81.4095,39.9746 82.5762,41.9746 83,44.5C 85.0363,56.579 83.0363,67.9123 77,78.5C 75.3343,81.3312 73.1676,83.6645 70.5,85.5C 70.3505,84.448 70.5172,83.448 71,82.5C 76.668,77.4902 79.3347,71.1568 79,63.5C 79.4186,62.3279 80.0853,61.3279 81,60.5C 81.6667,55.5 81.6667,50.5 81,45.5C 79.6485,43.4062 79.1485,41.0728 79.5,38.5 Z"/></g>
<g><path style="opacity:1" fill="#a4e7f6" d="M 59.5,40.5 C 61.1286,42.8577 62.2952,45.5243 63,48.5C 64.1933,55.5668 63.36,62.2335 60.5,68.5C 60.5638,63.7227 61.2305,59.056 62.5,54.5C 62.6839,51.7954 62.0173,49.4621 60.5,47.5C 60.0074,45.1944 59.6741,42.861 59.5,40.5 Z"/></g>
<g><path style="opacity:1" fill="#2491b7" d="M 30.5,28.5 C 35.9851,29.3272 41.6518,29.8272 47.5,30C 50.4572,30.687 52.7906,32.187 54.5,34.5C 45.8936,30.9103 36.8936,29.5769 27.5,30.5C 26.5036,46.6581 26.1702,62.9915 26.5,79.5C 25.0069,78.6879 24.3402,77.3545 24.5,75.5C 24.2675,59.9123 24.6008,44.2456 25.5,28.5C 27.1667,28.5 28.8333,28.5 30.5,28.5 Z"/></g>
<g><path style="opacity:1" fill="#d1f6fb" d="M 69.5,22.5 C 70.9305,22.4208 72.2638,22.7542 73.5,23.5C 75.5111,26.0099 77.6778,28.3432 80,30.5C 80.3333,32.8333 80.6667,35.1667 81,37.5C 82.7398,38.7158 83.7398,40.3825 84,42.5C 84.6667,51.8333 84.6667,61.1667 84,70.5C 81.7056,75.7499 78.8723,80.7499 75.5,85.5C 62.1752,96.0351 46.5085,100.035 28.5,97.5C 21.6581,97.4996 14.9914,97.1663 8.5,96.5C 21.1711,96.6666 33.8377,96.4999 46.5,96C 48.0581,95.79 49.3915,95.29 50.5,94.5C 57.6752,93.7434 64.0085,91.0767 69.5,86.5C 70.1667,86.5 70.5,86.1667 70.5,85.5C 73.1676,83.6645 75.3343,81.3312 77,78.5C 83.0363,67.9123 85.0363,56.579 83,44.5C 82.5762,41.9746 81.4095,39.9746 79.5,38.5C 79.6126,35.9512 78.9459,33.6179 77.5,31.5C 74.8398,28.5057 72.1731,25.5057 69.5,22.5 Z"/></g>
<g><path style="opacity:1" fill="#409dbf" d="M 27.5,30.5 C 27.5,46.8333 27.5,63.1667 27.5,79.5C 36.9217,80.3566 45.9217,79.0233 54.5,75.5C 54.67,76.8221 54.3366,77.9887 53.5,79C 45.254,80.93 36.9207,82.43 28.5,83.5C 27.2949,82.4231 26.6282,81.0898 26.5,79.5C 26.1702,62.9915 26.5036,46.6581 27.5,30.5 Z"/></g>
<g><path style="opacity:1" fill="#0997d1" d="M 30.5,28.5 C 28.8333,28.5 27.1667,28.5 25.5,28.5C 24.6008,44.2456 24.2675,59.9123 24.5,75.5C 24.3402,77.3545 25.0069,78.6879 26.5,79.5C 26.6282,81.0898 27.2949,82.4231 28.5,83.5C 36.9207,82.43 45.254,80.93 53.5,79C 54.3366,77.9887 54.67,76.8221 54.5,75.5C 57.3267,74.8916 59.9933,73.8916 62.5,72.5C 61.5433,75.1682 59.5433,76.6682 56.5,77C 58.056,78.599 59.7227,80.099 61.5,81.5C 59.8087,83.2562 57.8087,83.7562 55.5,83C 52.5529,79.7633 49.5529,79.7633 46.5,83C 26.7475,85.7433 26.7475,86.7433 46.5,86C 49.8118,83.759 52.8118,84.0923 55.5,87C 58.2241,87.2695 60.8908,87.7695 63.5,88.5C 65.323,87.2528 67.323,86.5861 69.5,86.5C 64.0085,91.0767 57.6752,93.7434 50.5,94.5C 37.5185,95.5448 24.5185,95.7114 11.5,95C 10.5769,92.9592 10.2436,90.7925 10.5,88.5C 12.3079,89.9179 12.9746,91.9179 12.5,94.5C 23.5438,94.8189 34.5438,94.3189 45.5,93C 48.6392,92.2457 51.6392,91.2457 54.5,90C 53.1268,89.1251 51.6268,88.6251 50,88.5C 46.3216,88.8305 42.4883,88.8305 38.5,88.5C 38.67,89.8221 38.3366,90.9887 37.5,92C 30.4819,92.5654 23.4819,92.3988 16.5,91.5C 16.5,89.8333 16.5,88.1667 16.5,86.5C 17.8221,86.67 18.9887,86.3366 20,85.5C 20.5,64.5026 20.6666,43.5026 20.5,22.5C 19.1779,22.33 18.0113,22.6634 17,23.5C 16.8331,44.1747 16.3331,64.8414 15.5,85.5C 14.1667,63.8333 14.1667,42.1667 15.5,20.5C 23.0843,20.3057 30.751,20.3057 38.5,20.5C 38.5,22.5 38.5,24.5 38.5,26.5C 36.6334,26.045 34.8001,25.3784 33,24.5C 32.1667,24.8333 31.3333,25.1667 30.5,25.5C 31.7914,26.5272 31.7914,27.5272 30.5,28.5 Z"/></g>
</svg>
